<svg xmlns="http://www.w3.org/2000/svg" width="1017.403" height="1080" viewBox="0 0 269.188 285.75"><path d="M160.14 219.166c-1.738-1.795-4.268-7.274-6.887-14.915-1.046-3.053-1.31-3.662-1.6-3.707-.197-.03-4.883 2.036-10.413 4.6l-13.186 5.902c-12.17 4.89-22.925 6.468-33.613 4.932-.79-.113-1.435-.266-1.435-.338s.254-.187.565-.255c2.413-.524 8.017-2.806 11.155-4.542 15.386-8.513 26.438-21.403 33.38-38.934 2.644-6.675 4.413-13.496 5-19.27.283-2.792.133-9.236-.267-11.43-.6-3.292-1.69-6.454-3.39-9.827-2.08-4.135-4.96-7.478-8.45-9.81-1.047-.7-2.06-1.412-2.25-1.582-1.095-.972-7.066-2.977-11.567-3.884-4.666-.94-6.36-1.074-13.393-1.064-7.954.01-16.433.57-32.874 2.167-17.608 1.7-28.022 1.728-35.47.064-5.19-1.16-10.195-3.69-13.22-6.687-6.828-6.76-7.438-17.643-1.6-28.746.835-1.6 1.085-1.926 1.598-2.15 3.59-1.552 17.245-2.545 29.625-2.154 5.604.177 12.666.577 15 .848l1.044.122.323.957c.22.652.35 1.677.41 3.218.075 1.917.03 2.498-.283 3.813-.67 2.797-1.842 4.64-4.087 6.43-3.156 2.515-6.65 3.283-9.95 2.187-1.52-.505-2.372-1.308-3.193-3.01-1.576-3.264-1.615-5.73-.107-6.917.248-.195.45-.477.45-.627 0-1.07-8.364 2.08-10.485 3.952-.458.404-.947.957-1.088 1.23-.453.877-.803 2.812-.8 4.425.007 4.185 2.32 7.375 6.032 8.32 4.143 1.056 10.04-.026 15.994-2.934 5.293-2.586 9.274-6.02 11.606-10.01 1.267-2.17 2.17-4.826 2.75-8.083.203-1.144.422-2.13.486-2.19.135-.125 6.702.474 13.572 1.237 18 2.002 30.514 4.59 36.682 7.595 3.302 1.608 3.02 1.174 7.067 10.843l20.545 49.05 17.538 42.043c.248.7 1.678 4.173 3.178 7.74 6.518 15.503 6.178 14.636 5.847 14.892-.416.322-5.644 2.94-8.052 4.03-4.875 2.2-8.66 3.477-10.39 3.477-.744 0-.865-.068-1.767-1zm-83.842-2.915c-7.385-.823-13.794-2.98-18.785-6.32-3.406-2.28-5.885-4.755-8.196-8.186-3-4.438-4.18-8.132-4.207-13.063-.014-2.35.31-5.662.565-5.82.062-.038.774.806 1.582 1.875 11.63 15.396 25.644 25.995 39.823 30.115 1.166.34 2.23.616 2.366.616s.245.07.245.154c0 .164-1.64.433-4.348.713-2.22.23-6.6.188-9.045-.085zm106.987-4.582c-.083-.158-1.226-2.91-2.54-6.113l-7.187-17.307c-1.004-2.3-34.132-83.09-38.947-94.968-1.474-3.637-1.48-3.656-1.385-4.87.373-4.787 5.977-14.443 16.102-27.744 4.352-5.717 13.44-16.863 13.85-16.99.096-.03.867.443 1.715 1.05 1.874 1.34 5.044 3.062 6.56 3.562 3.76 1.24 8.326 1.376 12.614.375 6.437-1.503 12.22-4.543 15.683-8.246 2.99-3.197 3.59-6.594 1.768-10.014-1.013-1.9-3.106-3.827-5.13-4.723-1.1-.49-2.427-.368-4.905.46-3.15 1.052-7.346 3.224-7.346 3.802 0 .178.32.26 1.193.31.984.056 1.308.155 1.845.565 1.47 1.12 3.05 4.544 3.05 6.607 0 1.522-.718 2.918-2.336 4.54-1.423 1.426-2.79 2.206-4.732 2.703-5.7 1.458-10.305-.476-13.747-5.776-.415-.64-.752-1.304-.75-1.478.007-.386 5.432-6.51 10.634-12.003 7.867-8.307 15.502-15.08 21.02-18.65l1.593-1.03 1.16.322c6.887 1.91 13.013 5.767 16.418 10.333 1.307 1.753 2.604 4.414 3.185 6.534.612 2.233.764 5.637.356 8-.787 4.573-2.896 9.26-6.07 13.5-1.97 2.632-3.677 4.56-7.042 7.962-4.853 4.907-7.563 7.295-19.603 17.274-16.66 13.81-23.75 20.45-28.395 26.595-3.087 4.084-6.56 10.45-7.156 13.112-.947 4.24-1.117 5.657-1.018 8.523.095 2.777.608 5.474 1.55 8.138.812 2.302 2.638 6.14 3.593 7.556 5.67 8.4 15.093 15.258 28.207 20.52 13.033 5.23 25.708 6.934 38.43 5.162 7.625-1.062 15.192-3.415 20.523-6.38.868-.483 1.58-.817 1.58-.74s-.548.868-1.218 1.76c-5.392 7.2-13.03 13.214-22.612 17.834l-2.957 1.442c-.65.354-.366.812 1.862 2.996 5.634 5.52 9.205 7.466 13.69 7.456 8-.017 17.122-6.64 28.028-20.35l2.336-2.937.567.245c.312.134.547.328.523.43s-.514 1.07-1.087 2.153c-1.045 1.974-6.29 9.227-6.938 9.593-.17.096-1.32 1.3-2.553 2.697-2.905 3.265-8.495 8.95-11 11.187-5.284 4.718-9.527 7.542-13 8.645-1.694.54-4.627.664-6.175.26-1.358-.353-3.183-1.282-4.16-2.118-2.157-1.846-4.382-5.983-6.628-12.322-1.26-3.553-1.79-4.81-2.113-5.015-.206-.13-2.552.666-9.385 3.183l-9.327 3.44c-.414.158-.2.73 1.482 4.164 3.65 7.406 5.605 12.775 5.606 15.4 0 1.04-.054 1.23-.503 1.74-1.47 1.67-8.343 4.697-16.415 7.23-1.995.626-2.237.668-2.372.41zm-97.333-2.734l-2.087-.268c-6.58-.824-12.706-3.705-16.96-7.974-2.222-2.23-3.766-4.383-5.37-7.487-4.648-9-6.022-17.512-4-24.873 1.087-3.975 3.882-7.942 7.475-10.606 4.45-3.3 9.043-4.926 13.907-4.926 6.375 0 11.45 2.515 14.412 7.143.485.758.565 1.016.47 1.52-.288 1.533-3.594 5.058-11.58 12.346-8.114 7.404-10.085 9.444-10.085 10.438 0 .5 1.095 1.976 2.007 2.703 2.22 1.77 5.69 2.49 8.818 1.826 3.117-.66 7.998-3.797 11.705-7.522 6.363-6.394 10.178-15.545 9.303-22.315-.77-5.956-4.247-10.753-9.327-12.868-2.322-.967-4.122-1.276-7.46-1.284-4.046-.01-7.128.574-11.567 2.185-2.603.945-7.968 3.635-10.175 5.103-6.714 4.464-11.947 10.594-16.065 18.82-1.3 2.594-2.83 6.423-3.444 8.61-.262.933-.526 1.696-.587 1.696-.232 0-4.396-6.502-6.34-9.897-5.38-9.402-11.618-22.46-16.108-33.712-.478-1.198-.837-2.21-.797-2.25s1.198.103 2.573.318c2.18.34 3.19.392 7.892.398 5.662.008 6.492-.057 13.48-1.053 5.252-.75 13.196-2.13 20.515-3.567 22.235-4.364 31.976-5.728 39.232-5.493 6.337.205 11.976 1.355 15.604 3.182 4.417 2.225 7.5 5.564 10.043 10.88 6.176 12.9 5.76 25.705-1.275 39.195-4.648 8.915-11.46 16.33-20.433 22.25-6.427 4.24-10.903 6.16-16.632 7.145-1.532.263-6.108.48-7.135.337zm122.277-53.764c-13.79-1.16-26.453-7.057-33.677-15.687-4.276-5.107-7.664-12-8.948-18.2-.393-1.895-.393-5.8 0-7.624.67-3.124 1.938-5.928 4.185-9.262 5.544-8.224 12.107-13.723 33.99-28.478 13.85-9.34 21.854-15.138 26.932-19.51 3.367-2.9 7.405-7.312 9.437-10.315.335-.495.676-.88.76-.854s.58 1.06 1.103 2.3c5.754 13.62 10.668 27.913 13.276 38.607.897 3.68 1.736 7.854 1.605 7.986-.043.043-.452-.152-.91-.433-3.516-2.163-10.828-4.85-16.007-5.88-4.858-.966-10.33-1.2-14.697-.632-5.637.735-12.973 3.237-17.584 5.998-4.885 2.924-8.933 7.147-10.505 10.96-1.532 3.714-1.45 7.798.232 11.8 2.416 5.728 8.206 9.976 16.444 12.064 3.188.808 5.72 1.07 9.325.97 4.684-.133 8.505-.916 11.382-2.335 2.935-1.447 5.326-4.387 5.93-7.292.206-.992.15-3.13-.1-3.764-.403-1.026-3.225-1.188-12.516-.72-8.57.433-16.062.442-17.852.022-.73-.17-1.445-.445-1.59-.61-.737-.837-1.06-5.056-.567-7.387 1.082-5.106 5.187-10.24 10.283-12.863 5.2-2.675 11.378-3.512 16.42-2.224 7.934 2.026 14.8 9.454 18.682 20.216 1.705 4.726 2.292 8.04 2.132 12.05-.16 3.99-.928 7.045-2.727 10.822-4.012 8.427-10.704 14.22-19.937 17.258-4.28 1.41-9.94 2.544-14.76 2.958-1.91.164-8.074.206-9.74.066zm41.658-5.353c0-.062.35-.718.777-1.46 3.377-5.854 6.018-13.472 7.293-21.03.9-5.28 1.05-7.472 1.052-14.394.003-6.675-.168-9.32-.954-14.945-.186-1.332-.315-2.445-.286-2.474.188-.188 3.482 2.455 4.83 3.874 3.592 3.784 5.568 8.132 6.343 13.953 1.363 10.238-3.045 21.44-12.075 30.685-2.57 2.63-6.978 6.29-6.978 5.79zM18.812 133.912c-2.315-.637-3.482-1.088-5.5-2.126-6.428-3.302-11.478-10.326-12.74-17.72-.123-.717-.263-1.187-.312-1.044s-.147-.513-.217-1.46c-.136-1.84.035-5.317.245-4.978.07.112.182-.29.25-.897.342-3.03 1.928-7.807 3.92-11.802 6.163-12.364 16.31-22.594 29.91-30.156 6.08-3.38 12.164-5.515 17.928-6.29 2.517-.338 7-.324 9.057.03 5.84 1.002 9.574 3.992 11.927 9.546.933 2.202 1.576 4.414 1.896 6.523.265 1.747.343 4.97.123 5.1-.212.124-7.033-.538-7.164-.695-.066-.08-.38-.848-.698-1.71-.705-1.908-2.26-5.052-3.14-6.35-.846-1.246-2.96-3.243-4.277-4.045-1.47-.893-3.447-1.65-5.7-2.18-1.756-.414-2.266-.456-5.5-.458-4.028-.003-5.583.24-8.897 1.394-6.838 2.38-14.078 7.977-17.83 13.787-.626.97-.65.986-2.215 1.47-2.433.754-4.615 1.878-5.832 3.005-5.173 4.8-4.176 18.656 2.872 39.946.72 2.177 1.9 5.543 2.62 7.48 1.604 4.314 1.55 4.133 1.256 4.118-.13-.007-1.02-.228-1.977-.49zm221.52-91.465c-3.643-8.226-8.43-17.337-12.406-23.612-4.842-7.64-10.024-13.282-14.073-15.32-3.266-1.645-5.694-1.475-10.146.71l-1.913.94-2-.367c-2.416-.443-8.396-.534-10.697-.163-8.02 1.292-13.505 3.853-18.1 8.45-3.765 3.767-5.814 7.483-6.35 11.52-.406 3.05.285 6.15 2.478 11.13.7 1.592.704 1.6.382 2.017-.178.226-1.215 1.48-2.303 2.788l-1.978 2.378-.617-.51c-2.052-1.692-4.526-5.27-5.962-8.623-1.12-2.617-1.608-4.722-1.61-6.948-.003-3.123.753-5.438 2.75-8.436 4.09-6.138 12.188-11.486 22.09-14.6C185.57 2.027 194.37.37 198.574.294c.74-.014.86-.05.522-.157-.24-.077 1.62-.14 4.174-.14s4.415.062 4.175.14c-.348.11-.26.143.435.157 1.566.032 5.514.55 8.214 1.076 15.106 2.95 24.77 9.762 28.122 19.822 1.05 3.152 1.374 5.093 1.39 8.34.017 3.78-.58 6.613-2.094 9.914-.632 1.376-2.334 4.35-2.49 4.348-.05 0-.36-.607-.69-1.348z" fill="#28aa49"/><path d="M169.967 187.506c-2.1-4.48-8.7-17.588-11.058-21.956-4.77-8.837-9.588-16.958-14.5-24.455-2.207-3.36-2.73-4.284-3.198-5.653-.798-2.332-2.6-5.884-3.98-7.803a25.39 25.39 0 0 0-6.359-6.171c-1.687-1.128-2.332-1.7-3.914-3.468-9.122-10.198-18.543-17.126-31.488-23.157-5.57-2.595-13.64-5.637-19.16-7.223-1.1-.316-2.07-.635-2.156-.7s.076-.834.383-1.76c.296-.894.705-2.56.9-3.706s.422-2.13.486-2.2c.135-.125 6.702.474 13.572 1.237 18 2.002 30.514 4.6 36.682 7.595 3.302 1.608 3.02 1.174 7.067 10.843l20.15 48.093 18.002 43.33c-.035.034-.676-1.248-1.426-2.848zm3.074-.423L133.13 89.63l.095-1.22c.373-4.788 5.976-14.442 16.103-27.745 4.352-5.717 13.44-16.863 13.85-17 .096-.03.878.452 1.74 1.07s2.328 1.52 3.26 2 1.696.952 1.696 1.03-.354.78-.786 1.562c-5.15 9.3-9.74 20.755-12.07 30.1-2.162 8.666-2.693 13.663-2.6 24.452.057 6.644.037 7.232-.286 8.6-.284 1.208-.346 2.067-.34 4.696.007 2.9.06 3.43.494 5.3.6 2.52 1.236 4.385 2.395 6.9.74 1.614.98 2.42 1.54 5.16 3.1 15.193 8.032 32.47 14.457 50.546.847 2.384 1.512 4.365 1.475 4.4s-.537-1.054-1.114-2.422zM65.253 84.73c-11.168-2.548-25.886-4.352-39.7-4.866-1.888-.07-3.12-.182-3.025-.275.224-.224 2.038-.626 4.555-1 6.073-.925 15.784-1.338 24.754-1.055 5.604.177 12.666.577 15 .848l1.044.122.324.957c.23.68.35 1.673.415 3.435l.1 2.48-.415-.02c-.23-.01-1.6-.288-3.024-.615zm53.69 152.808c-1.46 0-3.087.1-4.203.332-3.935.786-8.02 2.287-11.014 4.044-7.136 4.2-13.603 12.297-16.3 20.448-2.792 8.4-1.048 15.224 4.927 19.27 2.158 1.462 5.647 2.763 8.63 3.218 4.484.685 9.53-.086 13.432-2.05 5.328-2.683 9.55-7.118 12.4-13.02 1.86-3.855 2.77-7.307 3.148-11.967.313-3.844-.256-8.66-1.323-11.194-1.05-2.492-2.912-3.597-5.2-3.085-2.417.54-7.375 3.97-8.175 5.656a3.72 3.72 0 0 0-.276 1.348c.003.777.076.93 2.066 4.43 2.906 5.1 3.183 9.755.894 15.03-1.845 4.253-5.35 7.876-8.52 8.806-2.06.604-4.486-.053-6.08-1.647-1.85-1.85-2.83-4.797-3.142-9.45-.334-4.962.318-8.64 2.27-12.8 1.216-2.598 2.25-4.045 4.506-6.306 3.016-3.024 4.372-3.807 8.873-5.126 2.575-.754 3.786-1.322 5.213-2.443 1.16-.9 1.745-1.7 1.745-2.382 0-.332-.157-.516-.652-.763-.45-.224-1.745-.337-3.205-.338zm92.36 0c-1.46 0-3.087.1-4.203.332-3.935.786-8.022 2.287-11.015 4.044-7.136 4.2-13.603 12.297-16.3 20.448-2.792 8.4-1.048 15.224 4.927 19.27 2.158 1.462 5.648 2.763 8.63 3.218 4.484.685 9.53-.086 13.43-2.05 5.328-2.683 9.55-7.118 12.4-13.02 1.86-3.855 2.77-7.307 3.148-11.967.313-3.844-.256-8.66-1.323-11.194-1.05-2.492-2.9-3.597-5.2-3.085-2.417.54-7.376 3.97-8.175 5.656-.154.325-.28.932-.277 1.348.003.777.076.93 2.066 4.43 2.906 5.1 3.183 9.755.894 15.03-1.845 4.253-5.35 7.876-8.52 8.806-2.06.604-4.487-.053-6.08-1.647-1.85-1.85-2.83-4.797-3.142-9.45-.334-4.962.32-8.64 2.27-12.8 1.216-2.598 2.25-4.045 4.505-6.306 3.016-3.024 4.372-3.807 8.873-5.126 2.575-.754 3.786-1.322 5.213-2.443 1.16-.9 1.744-1.7 1.744-2.382 0-.332-.157-.516-.652-.763-.45-.224-1.745-.337-3.205-.338zm-147.337.015c-2.4.003-4.878.1-6.305.318-4.797.706-7.118 1.56-8.578 3.158-1.26 1.38-1.706 2.865-1.17 3.903.467.904 1.03.92 3.298.1.924-.334 2.12-.66 2.66-.723.917-.108.97-.094.84.217-.56 1.342-7.565 21.704-8.88 25.813-3.547 11.088-3.793 13.052-1.766 14.1 1 .506 2.64.388 4.827-.345 3.958-1.326 6.28-3.17 7.698-6.112.95-1.97 1.74-4.314 2.814-8.347.443-1.665 2.174-7.292 3.846-12.506l3.218-10.045c.098-.3.28-.566.403-.566.42 0 2.447 2.197 3.02 3.273 1.37 2.573 1.438 6.907.154 10.067-.82 2.016-2.494 4.03-4.396 5.3l-2.204 1.445c-1.586 1.035-2.3 1.786-2.56 2.686-.23.803-.037 1.22.754 1.625 2.46 1.256 8.054-.08 12.55-3 4.074-2.645 7.913-8.568 9.05-13.96.33-1.563.32-4.465-.017-5.78-.576-2.24-2.183-4.88-3.764-6.177-2.68-2.2-5.5-3.415-9.535-4.116-1.197-.208-3.55-.3-5.96-.308zm184.416.01c-3.126-.01-4.35.164-6.846.972-4.662 1.5-8.445 4.624-10.43 8.585-.92 1.84-1.225 3.177-1.228 5.392 0 1.642.066 2.1.48 3.305.97 2.8 3.04 5.316 7.58 9.218 1.582 1.36 3.176 2.803 3.542 3.2.96 1.062 2.3 3.176 2.712 4.274 1.42 3.798.266 7.215-2.44 7.215-1.22 0-2.845-1.396-3.78-3.246-.282-.558-.873-2.15-1.313-3.537-.898-2.83-1.245-3.503-2.063-4.002-.76-.463-1.737-.44-3.385.084-2.666.846-5.278 2.755-6 4.386-1.07 2.42 1.285 5.934 6.115 9.13 2.253 1.5 4.8 2.54 7.37 3.028 1.568.298 4.866.205 6.3-.18 4.383-1.18 8.7-4.973 10.712-9.408.97-2.138 1.273-3.593 1.267-6.08-.003-1.982-.064-2.438-.478-3.696-.877-2.668-2.514-4.7-7.5-9.35-1.333-1.243-2.756-2.712-3.163-3.265-1.847-2.5-2.116-5.602-.727-8.382.433-.867 1.677-2.18 2.066-2.18.8 0 2.042 1.626 2.768 3.62.777 2.135.93 3.554.68 6.334-.272 3.03-.175 3.35.98 3.22 1.06-.12 2.457-.998 4.08-2.565 2.962-2.86 4.307-6.07 3.83-9.143-.516-3.327-2.832-5.576-6.747-6.55-1.24-.308-2.048-.38-4.4-.388zm-94.303 1.32c-5.775-.055-11.8.925-13.884 2.303-1.376.9-2.215 3.657-1.418 4.64.433.534 1.893.635 3.836.264.804-.153 1.5-.243 1.543-.2s-.86 2.452-2.012 5.35c-4.26 10.73-7.846 21.356-9.087 26.925-.92 4.13-.234 6.047 2.228 6.225 1.694.123 5.1-1.18 7.453-2.848 1.95-1.382 3.04-3.503 5.184-10.074 1.596-4.893 4.893-15.662 6.9-22.58l1.26-4.318.617.112c1.946.35 4.16 1.98 4.863 3.576 1.512 3.43.18 9.204-2.882 12.512-1.355 1.464-3.052 2.7-4.583 3.314-2.394.974-2.568 1.07-2.763 1.497-.107.234-.194.688-.194 1 0 1.637 2.77 7.817 5.066 11.306 2.405 3.653 5.297 5.892 9.023 6.987.47.138 1.325.204 2.14.163 1.543-.076 2.7-.54 3.904-1.58.785-.672 2.44-3.046 2.9-4.16.437-1.058 1.16-3.983 1.013-4.104-.072-.06-.874-.408-1.783-.775-2.306-.93-4.185-1.883-5.914-3.002-1.616-1.046-4.04-3.4-4.643-4.5l-.382-.7 1.754-.586c4.98-1.663 8.744-5.462 9.88-9.974.424-1.684.46-4.287.08-5.747-.902-3.465-4.335-6.97-8.646-8.828-3.283-1.415-6.227-2.036-10.32-2.176l-1.15-.025z" fill="#1a1a1a"/></svg>